<mxfile host="app.diagrams.net" modified="2021-02-07T16:54:44.694Z" agent="5.0 (Windows NT 10.0; Win64; x64) AppleWebKit/537.36 (KHTML, like Gecko) Chrome/88.0.4324.146 Safari/537.36" etag="8VC7la7bgRaDO86UIby8" version="14.2.7" type="github">
  <diagram id="gzbfFNM49mtrdIT9MxgC" name="Page-1">
    <mxGraphModel dx="981" dy="548" grid="0" gridSize="10" guides="1" tooltips="1" connect="1" arrows="1" fold="1" page="1" pageScale="1" pageWidth="850" pageHeight="1100" math="0" shadow="0">
      <root>
        <mxCell id="0" />
        <mxCell id="1" parent="0" />
        <mxCell id="i94SGuSQBCYqXOLezEa3-1" value="&lt;b&gt;Liveliness Probe&lt;/b&gt;" style="rounded=0;whiteSpace=wrap;html=1;fillColor=#dae8fc;strokeColor=#6c8ebf;" vertex="1" parent="1">
          <mxGeometry x="90" y="260" width="230" height="60" as="geometry" />
        </mxCell>
        <mxCell id="i94SGuSQBCYqXOLezEa3-2" value="&lt;b&gt;Readiness Probe&lt;/b&gt;" style="rounded=0;whiteSpace=wrap;html=1;fillColor=#d5e8d4;strokeColor=#82b366;" vertex="1" parent="1">
          <mxGeometry x="320" y="260" width="230" height="60" as="geometry" />
        </mxCell>
        <mxCell id="i94SGuSQBCYqXOLezEa3-4" value="&lt;b&gt;Tells kubelet when to restart a container&lt;/b&gt;" style="rounded=0;whiteSpace=wrap;html=1;" vertex="1" parent="1">
          <mxGeometry x="90" y="320" width="230" height="40" as="geometry" />
        </mxCell>
        <mxCell id="i94SGuSQBCYqXOLezEa3-7" value="&lt;b&gt;Tells kubelet when to start accepting traffic&lt;/b&gt;" style="rounded=0;whiteSpace=wrap;html=1;" vertex="1" parent="1">
          <mxGeometry x="320" y="320" width="230" height="40" as="geometry" />
        </mxCell>
        <mxCell id="i94SGuSQBCYqXOLezEa3-8" value="&lt;b&gt;Startup Probe&lt;/b&gt;" style="rounded=0;whiteSpace=wrap;html=1;fillColor=#fff2cc;strokeColor=#d6b656;" vertex="1" parent="1">
          <mxGeometry x="550" y="260" width="230" height="60" as="geometry" />
        </mxCell>
        <mxCell id="i94SGuSQBCYqXOLezEa3-9" value="&lt;b&gt;Tells kubelet when the application starts&lt;/b&gt;" style="rounded=0;whiteSpace=wrap;html=1;" vertex="1" parent="1">
          <mxGeometry x="550" y="320" width="230" height="40" as="geometry" />
        </mxCell>
        <mxCell id="i94SGuSQBCYqXOLezEa3-10" value="&lt;b&gt;Disables Liveliness and Readiness until this checks completes&lt;/b&gt;" style="rounded=0;whiteSpace=wrap;html=1;" vertex="1" parent="1">
          <mxGeometry x="550" y="360" width="230" height="40" as="geometry" />
        </mxCell>
        <mxCell id="i94SGuSQBCYqXOLezEa3-11" value="&lt;b&gt;Helps catch deadlocks and restart hung containers&lt;/b&gt;" style="rounded=0;whiteSpace=wrap;html=1;" vertex="1" parent="1">
          <mxGeometry x="90" y="360" width="230" height="40" as="geometry" />
        </mxCell>
        <mxCell id="i94SGuSQBCYqXOLezEa3-12" value="&lt;b&gt;The pod is removed from Service (loadbalancer) until it is ready&lt;/b&gt;" style="rounded=0;whiteSpace=wrap;html=1;" vertex="1" parent="1">
          <mxGeometry x="320" y="360" width="230" height="40" as="geometry" />
        </mxCell>
        <mxCell id="i94SGuSQBCYqXOLezEa3-13" value="&lt;b&gt;Keeps sending request continuously to monitor the health of you pod&lt;/b&gt;" style="rounded=0;whiteSpace=wrap;html=1;" vertex="1" parent="1">
          <mxGeometry x="90" y="400" width="230" height="40" as="geometry" />
        </mxCell>
      </root>
    </mxGraphModel>
  </diagram>
</mxfile>
